<svg width="17" height="16" viewBox="0 0 17 16" fill="none" xmlns="http://www.w3.org/2000/svg">
<g clip-path="url(#clip0_6499_152)">
<path d="M2.27778 2.22266C1.80628 2.22266 1.3541 2.40996 1.0207 2.74336C0.687301 3.07675 0.5 3.52894 0.5 4.00043L0.5 12.0004C0.5 12.4719 0.687301 12.9241 1.0207 13.2575C1.3541 13.5909 1.80628 13.7782 2.27778 13.7782H5.83333V2.22266H2.27778Z" fill="#009A49"/>
<path d="M5.83203 2.22266H11.1654V13.7782H5.83203V2.22266Z" fill="#EEEEEE"/>
<path d="M14.7235 2.22266H11.168V13.7782H14.7235C15.195 13.7782 15.6472 13.5909 15.9806 13.2575C16.314 12.9241 16.5013 12.4719 16.5013 12.0004V4.00043C16.5013 3.52894 16.314 3.07675 15.9806 2.74336C15.6472 2.40996 15.195 2.22266 14.7235 2.22266Z" fill="#009A49"/>
</g>
<defs>
<clipPath id="clip0_6499_152">
<rect width="16" height="16" fill="white" transform="translate(0.5)"/>
</clipPath>
</defs>
</svg>
