<svg width="120" height="38" viewBox="0 0 120 38" fill="none" xmlns="http://www.w3.org/2000/svg">
<path d="M22.1328 33.938V28.7991C23.1816 28.7991 24.2352 28.6996 25.26 28.8254C26.3508 28.9609 26.6904 30.1105 25.98 30.9484C25.8984 31.0443 25.8204 31.1438 25.74 31.2433C26.508 31.7695 26.7564 32.2274 26.4996 32.991C26.3796 33.3507 26.0004 33.6252 25.7388 33.938H22.1328ZM22.7988 31.6221V33.3638C23.5248 33.3638 24.2268 33.3734 24.9276 33.3638C25.4724 33.3531 25.8324 33.0833 25.854 32.5163C25.8744 31.9242 25.4328 31.6772 24.9504 31.6401C24.2592 31.5765 23.5524 31.6221 22.7988 31.6221ZM22.7988 31.0407C23.6148 30.9748 24.3588 30.964 25.0788 30.8273C25.2876 30.7878 25.5852 30.3694 25.5588 30.1596C25.5252 29.8887 25.23 29.4679 25.0068 29.4404C24.2868 29.3481 23.538 29.4056 22.794 29.4056L22.7988 31.0407Z" fill="white"/>
<path d="M57.4023 33.9385V28.5693C57.8127 28.8091 58.1547 28.9062 58.3479 29.1315C59.3079 30.2584 60.2223 31.4175 61.2411 32.6738V28.7695C61.5759 28.7887 61.9551 28.5466 61.9611 29.0692C61.9611 30.6923 61.9311 32.3154 61.9119 33.9397H61.2675C60.2751 32.6774 59.2815 31.4151 58.1787 30.015V33.9397L57.4023 33.9385Z" fill="white"/>
<path d="M33.2038 33.9392C32.1238 33.2559 31.8238 32.237 31.9078 31.0226C31.9582 30.2806 31.9174 29.5326 31.9174 28.763H32.689C32.689 29.7855 32.6818 30.7865 32.689 31.7886C32.6974 32.6613 33.2062 33.4872 34.3234 33.3638C35.0962 33.2787 35.6362 32.756 35.6518 31.9253C35.6722 30.8992 35.6578 29.8742 35.6578 28.7774L36.403 28.7402C36.403 29.9054 36.4498 31.0178 36.3874 32.1243C36.3406 32.9406 35.7646 33.4788 35.1334 33.9368L33.2038 33.9392Z" fill="white"/>
<path d="M67.6953 33.9393V28.7379C68.8437 28.7379 69.9297 28.7295 71.0157 28.7511C71.1237 28.7511 71.2269 28.9381 71.3325 29.0388C71.2125 29.1491 71.1009 29.3505 70.9797 29.3541C70.1697 29.3829 69.3573 29.3697 68.5077 29.3697V30.9484H71.0049C71.0265 31.1882 71.0433 31.3668 71.0649 31.6113H68.5053V33.3627C69.2997 33.3627 70.1037 33.3771 70.9053 33.3627C71.3433 33.3507 71.5761 33.461 71.4273 33.9453L67.6953 33.9393Z" fill="white"/>
<path d="M77.4786 33.9388L76.4766 33.3562L76.7562 32.7832C77.4606 33.4233 78.2922 33.4545 79.1178 33.2927C79.3758 33.2423 79.689 32.9211 79.7586 32.6645C79.803 32.5015 79.4898 32.1347 79.2594 32.0268C78.7547 31.7999 78.2279 31.6255 77.6874 31.5066C77.0178 31.3459 76.647 30.9336 76.5894 30.2814C76.5342 29.6677 77.0694 28.9221 77.727 28.843C78.4215 28.7724 79.1227 28.8047 79.8078 28.9389C80.3514 29.0384 80.3346 29.1247 80.1798 29.5982C79.473 29.5322 78.789 29.3944 78.1194 29.4423C77.8458 29.4627 77.4846 29.8427 77.3718 30.1376C77.2158 30.5452 77.5398 30.7729 77.9526 30.8796C78.4458 31.0079 78.9126 31.2548 79.4094 31.3399C80.0478 31.449 80.4426 31.8086 80.5422 32.3876C80.6514 33.0206 80.2818 33.4785 79.7358 33.7878C79.6661 33.8332 79.6 33.8837 79.5378 33.9388H77.4786Z" fill="white"/>
<path d="M42.6007 33.9389C42.4171 33.8334 42.2407 33.7159 42.0487 33.6272C41.6263 33.433 41.5855 33.1693 41.9107 32.7941C42.5527 33.4018 43.3579 33.4126 44.1739 33.3419C44.5783 33.3071 44.9287 33.1681 44.9911 32.6826C45.0535 32.1971 44.7343 32.0832 44.3551 31.9741C43.8439 31.8351 43.3435 31.6577 42.8383 31.4946C42.1183 31.2681 41.6827 30.7838 41.7007 30.2228C41.7199 29.5911 42.2827 28.9569 42.9667 28.7939C43.845 28.6017 44.7637 28.7545 45.5323 29.2206C45.4423 29.3933 45.3499 29.5683 45.3439 29.5803C44.5855 29.5131 43.9267 29.4136 43.2679 29.4124C42.8239 29.4124 42.5131 29.6917 42.4639 30.1712C42.4147 30.6507 42.7507 30.7778 43.1215 30.8905C43.6315 31.0403 44.1271 31.2357 44.6419 31.3616C45.1567 31.4875 45.5815 31.7212 45.6691 32.2762C45.7567 32.8312 45.6763 33.3467 45.0955 33.6464C44.98 33.7296 44.8766 33.8285 44.7883 33.9401L42.6007 33.9389Z" fill="white"/>
<path d="M86.235 33.9385C86.073 33.845 85.9122 33.7479 85.749 33.658C85.4082 33.471 85.3074 33.2348 85.4598 33.0466C86.2998 33.1665 87.0102 33.3043 87.7314 33.3319C87.8875 33.3237 88.0404 33.2846 88.1813 33.2169C88.3222 33.1492 88.4483 33.0542 88.5522 32.9375C88.8222 32.6211 88.7706 32.2459 88.3122 32.0804C87.7314 31.8742 87.1458 31.6777 86.5554 31.5014C85.7586 31.2617 85.4754 30.968 85.4682 30.3027C85.4562 29.5619 85.8282 28.9673 86.5398 28.8331C87.423 28.6652 88.3302 28.5933 89.1702 29.2298L88.9002 29.7465L88.887 29.5655C88.2282 29.5127 87.567 29.4168 86.9106 29.4252C86.5098 29.4252 86.1906 29.665 86.1594 30.1445C86.1306 30.594 86.3478 30.7834 86.7666 30.8853C87.261 31.0052 87.7266 31.2449 88.2234 31.3468C88.7958 31.4667 89.2266 31.7328 89.3646 32.3154C89.5026 32.898 89.229 33.3427 88.7466 33.6712C88.635 33.7552 88.5284 33.8457 88.4274 33.9421L86.235 33.9385Z" fill="white"/>
<path d="M50.8359 33.9388V28.7698L51.6087 28.7314V33.9376L50.8359 33.9388Z" fill="white"/>
<path d="M17.888 13H21.89V15.7103C21.89 16.9534 21.7844 18.2085 21.9212 19.436C22.0412 20.5437 21.4412 20.9716 20.6372 21.39C18.4256 22.5455 16.0772 23.0011 13.5896 22.8848C11.5388 22.7889 9.66316 22.2207 7.99396 21.004C5.89996 19.4768 4.65316 17.4437 4.24996 14.882C3.83356 12.2448 4.33396 9.78258 5.86036 7.60568C6.89013 6.11748 8.358 4.98631 10.0604 4.36908C12.0248 3.64984 14.0204 3.3094 16.1312 3.67142C17.378 3.88479 18.6032 4.1581 19.6976 4.77425C20.4992 5.22498 21.2036 5.85312 21.9296 6.43571C22.2152 6.66227 22.1756 6.94277 21.896 7.19091C21.2096 7.79148 20.5208 8.39085 19.8656 9.03097C19.5452 9.34384 19.3256 9.33665 19.0256 9.02139C16.9856 6.914 13.4024 6.83009 11.1476 8.19186C9.68836 9.07053 8.93356 10.4563 8.61556 12.1069C8.27116 13.905 8.69836 15.5461 9.70276 17.0038C10.4552 18.0946 11.6336 18.6449 12.9032 19.0297C14.4908 19.5091 15.9728 19.1735 17.4632 18.6544C17.8232 18.5346 17.8964 18.3248 17.894 17.9855C17.8808 16.3433 17.888 14.6974 17.888 13Z" fill="white"/>
<path d="M81.9942 3.58126C82.7334 3.58126 83.4342 3.58126 84.1326 3.58126C84.5406 3.58126 84.9606 3.63281 85.3518 3.5489C85.9638 3.41704 86.1246 3.59325 86.1186 4.213C86.0886 7.23382 86.1594 10.2558 86.0838 13.2743C86.0394 15.0987 85.7826 16.9388 84.7938 18.5283C83.781 20.1574 82.4106 21.4269 80.5938 22.1893C78.4722 23.0787 76.3158 23.1303 74.1558 22.4962C71.8878 21.8297 70.2006 20.4008 69.0126 18.3413C68.0526 16.6895 67.8606 14.8938 67.839 13.0669C67.8042 10.0461 67.8282 7.02524 67.8306 4.00322C67.8306 3.88335 67.8546 3.75748 67.8714 3.60164H71.817V4.3065C71.817 7.26379 71.8242 10.2211 71.817 13.1772C71.817 14.6648 72.1974 16.0386 73.1034 17.2121C73.6377 17.9026 74.3824 18.4008 75.225 18.6314C76.8894 19.0833 78.5514 19.0126 79.9746 17.9589C80.5839 17.5236 81.0822 16.9512 81.429 16.2879C81.7759 15.6247 81.9617 14.8892 81.9714 14.1409C82.0338 11.0242 81.9942 7.89672 81.9966 4.77401L81.9942 3.58126Z" fill="white"/>
<path d="M99.042 18.4715C98.9364 17.618 98.4 17.208 97.854 16.8675C96.672 16.1291 95.4432 15.465 94.2456 14.7482C92.7084 13.8275 91.1016 12.9944 89.6784 11.9204C88.374 10.9362 87.6876 8.72811 88.4964 6.76578C89.484 4.3683 91.4088 3.55556 93.7764 3.5184C96.348 3.47884 98.9208 3.56275 101.494 3.56514C101.952 3.56514 102.082 3.71259 102.071 4.15492C102.044 5.26496 102.062 6.37499 102.062 7.54016C101.774 7.55694 101.569 7.57972 101.365 7.57972C98.856 7.57972 96.348 7.57013 93.84 7.5917C93.4376 7.60304 93.0406 7.68796 92.6688 7.84224C92.2416 8.01606 92.0508 8.38647 92.484 8.72331C93.3501 9.41753 94.2513 10.0669 95.184 10.6689C97.1328 11.8892 99.1716 12.974 101.072 14.2651C102.676 15.3511 103.445 16.9479 103.09 18.9402C102.85 20.278 102.137 21.3113 101.02 22.0964C99.642 23.0662 98.0472 22.8912 96.5148 22.9763C95.0856 23.0566 93.648 22.9943 92.3028 22.9943L89.718 18.897C92.9196 18.8419 96.0156 19.2794 99.042 18.4715Z" fill="white"/>
<path d="M64.5078 3.6218V7.58723H62.0418C60.177 7.58723 58.311 7.56685 56.445 7.58723C56.0024 7.61475 55.5656 7.70226 55.1466 7.84735C54.6906 7.98281 54.6522 8.38199 54.9258 8.64931C55.4411 9.17638 56.0143 9.64365 56.6346 10.0422C58.8798 11.4208 61.1946 12.6951 63.4098 14.118C65.0646 15.1788 65.9298 16.7552 65.6322 18.7739C65.3418 20.7014 64.1574 22.3365 62.139 22.6518C60.2334 22.9503 58.2618 22.8124 56.3238 22.9347C55.1838 23.0054 54.4266 22.6865 53.9238 21.5705C53.5086 20.6439 52.8354 19.8323 52.2846 18.9812C53.8854 18.9812 55.443 19.0184 56.9982 18.9704C58.257 18.9309 59.5182 18.8062 60.7686 18.6756C61.0266 18.6492 61.479 18.4082 61.4706 18.2968C61.4454 17.9935 61.2978 17.5967 61.0626 17.4313C60.045 16.718 58.989 16.0551 57.9258 15.4114C56.4738 14.5327 54.9918 13.7056 53.5458 12.8197C52.9474 12.4699 52.3909 12.0528 51.8874 11.5766C50.4054 10.1046 50.4402 7.62918 51.345 6.08401C52.425 4.23795 54.129 3.55228 56.1246 3.51871C58.8258 3.47436 61.5246 3.54868 64.2306 3.57385C64.324 3.58373 64.4166 3.59974 64.5078 3.6218Z" fill="white"/>
<path d="M48.6179 22.8823C47.2367 22.8823 45.9299 22.9087 44.6255 22.8583C44.3759 22.8487 44.0471 22.5922 43.9055 22.3573C43.0931 20.9943 42.3455 19.6002 41.5427 18.2228C40.3235 16.125 39.0839 14.0392 37.8503 11.9486C37.6799 11.6597 37.5107 11.3708 37.3187 11.0963C36.8123 10.3771 36.1187 10.3195 35.6159 11.052C34.9487 12.0277 34.3763 13.0682 33.7787 14.0908C32.7459 15.8601 31.7203 17.6342 30.7019 19.4132C30.1787 20.3326 29.6699 21.2616 29.1923 22.2062C28.9523 22.6857 28.6655 22.9254 28.0679 22.9003C26.8523 22.8403 25.6319 22.8823 24.3047 22.8823C25.2479 21.222 26.1551 19.6361 27.0503 18.0454C28.0235 16.3168 28.9835 14.5798 29.9543 12.8501C30.6743 11.5602 31.4023 10.2724 32.1383 8.98653C32.8919 7.66312 33.6491 6.34211 34.4099 5.0235C34.7763 4.34351 35.3713 3.81456 36.0899 3.52987C36.8099 3.26016 37.4027 3.76962 37.7951 4.2659C38.5096 5.20178 39.1683 6.17884 39.7679 7.19202C40.4591 8.32602 41.0819 9.50198 41.7383 10.6576C42.6659 12.2902 43.6043 13.9169 44.5247 15.5532C45.8783 17.9603 47.2199 20.3781 48.6179 22.8823Z" fill="white"/>
<path d="M112.868 22.5875C113.391 22.8272 113.438 23.0202 113.239 24.1458H110.582C110.025 24.1458 109.467 24.1315 108.91 24.1458C106.774 24.2046 105.956 22.6798 106.078 20.8361C106.117 20.2499 106.3 19.6662 106.475 19.0992C106.557 18.8402 106.733 18.4698 107.119 18.7395C107.411 18.9469 108.011 18.9397 107.744 19.6206C107.524 20.145 107.395 20.7027 107.362 21.2701C107.336 22.1092 107.92 22.5887 108.657 22.5887C108.562 21.9318 108.429 21.2641 108.377 20.5904C108.319 19.8232 108.761 19.2454 109.313 18.8079C110.113 18.1725 111.603 18.2217 112.377 18.8246C113.444 19.659 113.601 20.8086 112.868 22.5875ZM109.659 21.2617C109.659 22.0924 110.104 22.6163 110.823 22.6282C111.542 22.6402 112.101 22.0684 112.103 21.2892C112.103 20.4106 111.631 19.9107 110.8 19.9239C109.99 19.9347 109.659 20.3231 109.659 21.2617Z" fill="white"/>
<path d="M107.986 9.57421C107.936 8.01585 109.288 6.72841 110.647 6.71882C112.139 6.70803 113.437 8.02664 113.383 9.63535C113.316 11.5965 112.11 12.5543 110.651 12.5423C109.241 12.5315 108.01 11.5749 107.986 9.57421ZM110.664 8.32153C109.817 8.32753 109.271 8.84658 109.272 9.64014C109.273 10.4337 109.825 10.9168 110.698 10.9084C111.57 10.9 112.115 10.3798 112.104 9.60538C112.093 8.83099 111.503 8.31554 110.664 8.32153Z" fill="white"/>
<path d="M112.02 17.33C111.87 15.9131 111.464 15.5547 110.041 15.5511H108.031V14.0742H113.22C113.482 15.1447 113.394 15.4672 112.86 15.5858L113.522 17.33H112.02Z" fill="white"/>
<path d="M109.862 4.70322C109.849 5.15395 109.364 5.64303 108.932 5.64303C108.479 5.64303 107.98 5.11439 107.984 4.63849C107.989 4.16259 108.454 3.72266 108.928 3.72266C109.054 3.72368 109.179 3.75009 109.295 3.80032C109.411 3.85055 109.516 3.92358 109.603 4.01506C109.69 4.10654 109.758 4.2146 109.803 4.33282C109.847 4.45104 109.868 4.577 109.862 4.70322Z" fill="white"/>
</svg>
